<svg xmlns="http://www.w3.org/2000/svg" version="1.1" xmlns:xlink="http://www.w3.org/1999/xlink" xmlns:svgjs="http://svgjs.dev/svgjs" width="1500" height="1500" viewBox="0 0 1500 1500"><rect width="1500" height="1500" fill="#000000"></rect><g transform="matrix(0.6666666666666666,0,0,0.6666666666666666,248.7765957446809,601.3592094294295)"><svg viewBox="0 0 376 111" data-background-color="#ffffff" preserveAspectRatio="xMidYMid meet" height="442" width="1500" xmlns="http://www.w3.org/2000/svg" xmlns:xlink="http://www.w3.org/1999/xlink"><g id="tight-bounds" transform="matrix(1,0,0,1,0.46023999999999887,0.49251499999999737)"><svg viewBox="0 0 375.07953 110.01496999999999" height="110.01496999999999" width="375.07953"><g><svg></svg></g><g><svg viewBox="0 0 375.07953 110.01496999999999" height="110.01496999999999" width="375.07953"><g transform="matrix(1,0,0,1,-10.22024,-71.47497)"><path d="M10.22 175.725v-104.25h375.08v104.25h-37.446v-2.9h34.545v-98.45h-369.278v98.45h64.58l0 2.9z" fill="#ffffff" fill-rule="nonzero" stroke="none" stroke-width="1" stroke-linecap="butt" stroke-linejoin="miter" stroke-miterlimit="10" stroke-dasharray="" stroke-dashoffset="0" font-family="none" font-weight="none" font-size="none" text-anchor="none" style="mix-blend-mode: normal" data-fill-palette-color="tertiary"></path><g><path transform="translate(85.42441,178.18301) scale(0.30063,0.30063)" d="M12.2-34.85l6.3 19.25h0.5l7.3-19 6.9 0.2 0.2 21.5 0.95 12.9h-6.75l0.25-13-0.55-13.15-6 16.55-6.15 0.3-5.6-16.85-0.45 13.15 0.35 13h-6.2l0.7-12.15 0.3-21.45zM45.25 0c-1.967 0-3.573-0.627-4.82-1.88-1.253-1.247-1.88-2.93-1.88-5.05 0-2.113 0.967-3.947 2.9-5.5 1.933-1.547 4.283-2.32 7.05-2.32v0h3.4v-0.85c0-1.633-0.333-2.75-1-3.35-0.667-0.6-1.917-0.9-3.75-0.9v0c-0.767 0-1.673 0.157-2.72 0.47-1.053 0.32-2.23 0.813-3.53 1.48v0l-1.45-3.95c1.433-1 3.177-1.9 5.23-2.7 2.047-0.8 3.737-1.2 5.07-1.2v0c5.233 0 7.85 2.533 7.85 7.6v0 9.8c0 1.867 0.583 3.95 1.75 6.25v0l-5.3 2.25c-0.833-1.6-1.45-3.033-1.85-4.3v0c-1.833 2.767-4.15 4.15-6.95 4.15zM47.35-5.1v0c1.333 0 2.85-0.683 4.55-2.05v0-3.35c-1.767-0.4-3.2-0.6-4.3-0.6v0c-2.1 0-3.15 0.933-3.15 2.8v0c0 0.967 0.267 1.74 0.8 2.32 0.533 0.587 1.233 0.88 2.1 0.88zM78.2-12.65c0-2.3-0.2-3.833-0.6-4.6-0.4-0.767-1.333-1.15-2.8-1.15-1.467 0-3.133 0.583-5 1.75v0 3.65l0.55 11.75-6.7 1.25 0.6-12.15c-0.133-4.467-0.5-8.467-1.1-12v0l6.05-1.3c0.233 1.933 0.4 3.817 0.5 5.65v0c0.5-0.667 1.067-1.327 1.7-1.98 0.633-0.647 1.633-1.38 3-2.2 1.367-0.813 2.81-1.22 4.33-1.22 1.513 0 2.787 0.59 3.82 1.77 1.033 1.187 1.55 2.797 1.55 4.83v0l-0.3 5.6 0.55 12-6.75 1.25zM94.85 0c-1.967 0-3.573-0.627-4.82-1.88-1.253-1.247-1.88-2.93-1.88-5.05 0-2.113 0.967-3.947 2.9-5.5 1.933-1.547 4.283-2.32 7.05-2.32v0h3.4v-0.85c0-1.633-0.333-2.75-1-3.35-0.667-0.6-1.917-0.9-3.75-0.9v0c-0.767 0-1.673 0.157-2.72 0.47-1.053 0.32-2.23 0.813-3.53 1.48v0l-1.45-3.95c1.433-1 3.177-1.9 5.23-2.7 2.047-0.8 3.737-1.2 5.07-1.2v0c5.233 0 7.85 2.533 7.85 7.6v0 9.8c0 1.867 0.583 3.95 1.75 6.25v0l-5.3 2.25c-0.833-1.6-1.45-3.033-1.85-4.3v0c-1.833 2.767-4.15 4.15-6.95 4.15zM96.95-5.1v0c1.333 0 2.85-0.683 4.55-2.05v0-3.35c-1.767-0.4-3.2-0.6-4.3-0.6v0c-2.1 0-3.15 0.933-3.15 2.8v0c0 0.967 0.267 1.74 0.8 2.32 0.533 0.587 1.233 0.88 2.1 0.88zM111.55 4.95v0c0-2.933 2.733-5.233 8.2-6.9v0c-1.3-0.667-1.95-1.533-1.95-2.6v0c0-0.433 0.167-0.867 0.5-1.3 0.333-0.433 0.817-0.883 1.45-1.35v0-0.4c-2.4 0-4.307-0.667-5.72-2-1.42-1.333-2.13-3.117-2.13-5.35v0c0-2.9 1.183-5.427 3.55-7.58 2.367-2.147 5.167-3.22 8.4-3.22v0c0.833 0 2.05 0.167 3.65 0.5 1.6 0.333 3.167 0.5 4.7 0.5v0h3.85l-0.5 4.35-3.75-0.45c0.333 0.967 0.5 2.067 0.5 3.3 0 1.233-0.29 2.457-0.87 3.67-0.587 1.22-1.287 2.197-2.1 2.93-0.82 0.733-1.637 1.373-2.45 1.92-0.82 0.553-1.52 1.037-2.1 1.45-0.587 0.42-0.88 0.797-0.88 1.13v0c0 0.633 0.667 1.183 2 1.65v0c3.533 1.433 5.927 2.65 7.18 3.65 1.247 1 1.87 2.233 1.87 3.7v0c0 2.467-1.24 4.493-3.72 6.08-2.487 1.58-5.447 2.37-8.88 2.37-3.433 0-6.09-0.55-7.97-1.65-1.887-1.1-2.83-2.567-2.83-4.4zM126.65-16.05v0c0-1.633-0.367-2.833-1.1-3.6-0.733-0.767-1.883-1.15-3.45-1.15v0c-3.033 0-4.55 1.493-4.55 4.48 0 2.98 1.617 4.47 4.85 4.47v0c2.833 0 4.25-1.4 4.25-4.2zM128.45 3.3v0c0-0.6-0.317-1.157-0.95-1.67-0.633-0.52-1.767-1.13-3.4-1.83v0c-2.433 0.667-4.107 1.283-5.02 1.85-0.92 0.567-1.38 1.267-1.38 2.1 0 0.833 0.46 1.51 1.38 2.03 0.913 0.513 2.187 0.77 3.82 0.77 1.633 0 2.967-0.3 4-0.9 1.033-0.6 1.55-1.383 1.55-2.35zM147.7-5.1v0c0.967 0 1.983-0.25 3.05-0.75 1.067-0.5 1.9-1 2.5-1.5v0l0.9-0.75 2.3 2.8c-0.333 0.567-0.85 1.217-1.55 1.95-0.7 0.733-1.407 1.357-2.12 1.87-0.72 0.52-1.67 0.987-2.85 1.4-1.187 0.42-2.413 0.63-3.68 0.63v0c-2.7 0-4.9-1.027-6.6-3.08-1.7-2.047-2.55-4.687-2.55-7.92v0c0-4.067 1.183-7.633 3.55-10.7 2.367-3.067 5.133-4.6 8.3-4.6v0c2.433 0 4.327 0.683 5.68 2.05 1.347 1.367 2.02 3.283 2.02 5.75v0c0 1.467-0.25 3.133-0.75 5v0l-1 1.05-12.5 1.15c0.567 3.767 2.333 5.65 5.3 5.65zM147.7-20.6v0c-1.467 0-2.7 0.593-3.7 1.78-1 1.18-1.583 2.687-1.75 4.52v0l8.5-1.05c0.1-0.767 0.15-1.4 0.15-1.9v0c0-2.233-1.067-3.35-3.2-3.35zM189.25-14.4l1.75 8.15h0.65l1.6-6.85 2.6-12.35 6.1 0.75-3.65 12.4-3.05 11.7-8.2 0.75-2.75-12.15-0.25-0.8-3.35 12.2-7.95 0.75-2.9-12.15-3.45-12.15 6.55-1.25 2.05 11 1.8 8.15h0.65l4.3-14.25-1.05-3.65 6.45-1.25zM205.25-24.2l6.7-1.25-0.6 12.45 0.55 11.75-6.7 1.25 0.6-12.15zM204.9-32.77c0-1.12 0.433-2.12 1.3-3 0.867-0.887 1.867-1.33 3-1.33 1.133 0 2 0.307 2.6 0.92 0.6 0.62 0.9 1.547 0.9 2.78 0 1.233-0.423 2.29-1.27 3.17-0.853 0.887-1.837 1.33-2.95 1.33-1.12 0-1.997-0.367-2.63-1.1-0.633-0.733-0.95-1.657-0.95-2.77zM216.5-24.2h2.9v-5.45l6.75-1.3-0.65 6.75h6.05l-0.55 4.1h-5.7l-0.25 10.45c0 1.567 0.15 2.607 0.45 3.12 0.3 0.52 0.85 0.78 1.65 0.78 0.8 0 1.867-0.183 3.2-0.55v0l0.3 3.55c-2.2 1.833-4.133 2.75-5.8 2.75-1.667 0-3.033-0.61-4.1-1.83-1.067-1.213-1.6-2.803-1.6-4.77v0l0.3-5.6-0.05-7.9h-3.45zM249.8-12.65c0-2.3-0.2-3.833-0.6-4.6-0.4-0.767-1.333-1.15-2.8-1.15-1.467 0-3.133 0.583-5 1.75v0 3.65l0.55 11.75-6.75 1.25 0.6-12.15-0.6-25.3 6.85-1.25-0.65 12.95v5.85c0.5-0.667 1.067-1.317 1.7-1.95 0.633-0.633 1.617-1.35 2.95-2.15 1.333-0.8 2.76-1.2 4.28-1.2 1.513 0 2.787 0.59 3.82 1.77 1.033 1.187 1.55 2.797 1.55 4.83v0l-0.3 5.6 0.55 12-6.75 1.25zM288.55 0h-18.3l0.6-12.15-0.6-22.35h18.75l-0.55 5.35h-11.25l-0.3 8.85h10l-0.55 5.3h-9.65l-0.05 2 0.35 7.7h12.1zM298.75 0c-1.967 0-3.573-0.627-4.82-1.88-1.253-1.247-1.88-2.93-1.88-5.05 0-2.113 0.967-3.947 2.9-5.5 1.933-1.547 4.283-2.32 7.05-2.32v0h3.4v-0.85c0-1.633-0.333-2.75-1-3.35-0.667-0.6-1.917-0.9-3.75-0.9v0c-0.767 0-1.673 0.157-2.72 0.47-1.053 0.32-2.23 0.813-3.53 1.48v0l-1.45-3.95c1.433-1 3.177-1.9 5.23-2.7 2.047-0.8 3.737-1.2 5.07-1.2v0c5.233 0 7.85 2.533 7.85 7.6v0 9.8c0 1.867 0.583 3.95 1.75 6.25v0l-5.3 2.25c-0.833-1.6-1.45-3.033-1.85-4.3v0c-1.833 2.767-4.15 4.15-6.95 4.15zM300.85-5.1v0c1.333 0 2.85-0.683 4.55-2.05v0-3.35c-1.767-0.4-3.2-0.6-4.3-0.6v0c-2.1 0-3.15 0.933-3.15 2.8v0c0 0.967 0.267 1.74 0.8 2.32 0.533 0.587 1.233 0.88 2.1 0.88zM324.75-4.65v0c1.733 0 2.6-0.767 2.6-2.3v0c0-0.533-0.373-1.033-1.12-1.5-0.753-0.467-1.67-0.933-2.75-1.4-1.087-0.467-2.17-0.993-3.25-1.58-1.087-0.58-2.003-1.387-2.75-2.42-0.753-1.033-1.13-2.217-1.13-3.55v0c0-2.233 0.983-4.183 2.95-5.85 1.967-1.667 4.233-2.5 6.8-2.5v0c1.2 0 2.377 0.14 3.53 0.42 1.147 0.287 2.253 0.73 3.32 1.33v0l-3.35 6.1c-0.233-0.2-0.533-0.45-0.9-0.75-0.367-0.3-1.057-0.693-2.07-1.18-1.02-0.48-1.92-0.72-2.7-0.72-0.787 0-1.387 0.173-1.8 0.52-0.42 0.353-0.63 0.84-0.63 1.46 0 0.613 0.577 1.227 1.73 1.84 1.147 0.62 2.403 1.187 3.77 1.7 1.367 0.52 2.627 1.37 3.78 2.55 1.147 1.187 1.72 2.597 1.72 4.23v0c0 2.333-0.957 4.383-2.87 6.15-1.92 1.767-4.13 2.65-6.63 2.65v0c-1.6 0-3.09-0.35-4.47-1.05-1.387-0.7-2.38-1.4-2.98-2.1v0l-0.9-1.05 3.95-4.6c0.2 0.267 0.483 0.6 0.85 1 0.367 0.4 1.093 0.933 2.18 1.6 1.08 0.667 2.12 1 3.12 1zM345.9-5.1v0c0.967 0 1.983-0.25 3.05-0.75 1.067-0.5 1.9-1 2.5-1.5v0l0.9-0.75 2.3 2.8c-0.333 0.567-0.85 1.217-1.55 1.95-0.7 0.733-1.407 1.357-2.12 1.87-0.72 0.52-1.67 0.987-2.85 1.4-1.187 0.42-2.413 0.63-3.68 0.63v0c-2.7 0-4.9-1.027-6.6-3.08-1.7-2.047-2.55-4.687-2.55-7.92v0c0-4.067 1.183-7.633 3.55-10.7 2.367-3.067 5.133-4.6 8.3-4.6v0c2.433 0 4.323 0.683 5.67 2.05 1.353 1.367 2.03 3.283 2.03 5.75v0c0 1.467-0.25 3.133-0.75 5v0l-1 1.05-12.5 1.15c0.567 3.767 2.333 5.65 5.3 5.65zM345.9-20.6v0c-1.467 0-2.7 0.593-3.7 1.78-1 1.18-1.583 2.687-1.75 4.52v0l8.5-1.05c0.1-0.767 0.15-1.4 0.15-1.9v0c0-2.233-1.067-3.35-3.2-3.35zM364.55-3.35v0c0 2.833-2.067 5.833-6.2 9v0l-2.05-1.5c1.967-2.3 2.95-4.283 2.95-5.95v0c0-1.033-0.433-2.35-1.3-3.95v0l4.9-1.95c1.133 1.433 1.7 2.883 1.7 4.35zM396.55 0h-18.3l0.6-12.15-0.6-22.35h18.75l-0.55 5.35h-11.25l-0.3 8.85h10l-0.55 5.3h-9.65l-0.05 2 0.35 7.7h12.1zM414.95-4.9v0c-2.6 3.267-4.85 4.9-6.75 4.9v0c-2.367 0-4.307-0.967-5.82-2.9-1.52-1.933-2.28-4.417-2.28-7.45v0c0-4.167 1.16-7.683 3.48-10.55 2.313-2.867 5.153-4.3 8.52-4.3v0l2.8 0.4v-0.95l-0.6-11.7 6.85-1.25-0.65 25.7v4.4c0 2 0.5 4.3 1.5 6.9v0l-5.4 2.25c-0.967-2-1.517-3.817-1.65-5.45zM405.7-12.95c0 2.133 0.393 3.8 1.18 5 0.78 1.2 1.913 1.8 3.4 1.8 1.48 0 3.02-0.6 4.62-1.8v0-10.8c-2-0.4-3.483-0.6-4.45-0.6v0c-1.5 0-2.667 0.533-3.5 1.6-0.833 1.067-1.25 2.667-1.25 4.8zM432.85 0v0c-1.8 0-3.257-0.593-4.37-1.78-1.12-1.18-1.68-2.737-1.68-4.67v0l0.3-5.75-0.55-12 6.7-1.25-0.65 15.2c0 1.433 0.26 2.483 0.78 3.15 0.513 0.667 1.337 1 2.47 1 1.133 0 2.7-0.567 4.7-1.7v0-3l-0.55-13.15 6.75-1.25-0.6 12.5 0.05 4.1c0 2.133 0.55 4.283 1.65 6.45v0l-5.2 2.3c-1.1-2.167-1.767-3.9-2-5.2v0c-3 3.367-5.6 5.05-7.8 5.05zM460.95-19.25c-1.467 0-2.6 0.523-3.4 1.57-0.8 1.053-1.2 2.663-1.2 4.83 0 2.167 0.41 3.907 1.23 5.22 0.813 1.32 2.003 1.98 3.57 1.98v0c0.8 0 1.583-0.25 2.35-0.75 0.767-0.5 1.35-1 1.75-1.5v0l0.55-0.8 2.5 2.6c-0.1 0.167-0.223 0.4-0.37 0.7-0.153 0.3-0.52 0.833-1.1 1.6-0.587 0.767-1.203 1.44-1.85 2.02-0.653 0.587-1.497 1.12-2.53 1.6-1.033 0.487-2.117 0.73-3.25 0.73v0c-2.5 0-4.533-1.017-6.1-3.05-1.567-2.033-2.35-4.683-2.35-7.95v0c0-4.067 1.183-7.633 3.55-10.7 2.367-3.067 5.133-4.6 8.3-4.6v0c0.967 0 1.933 0.14 2.9 0.42 0.967 0.287 1.95 0.73 2.95 1.33v0l-3.5 6.15c-1.2-0.933-2.533-1.4-4-1.4zM476.6 0c-1.967 0-3.573-0.627-4.82-1.88-1.253-1.247-1.88-2.93-1.88-5.05 0-2.113 0.967-3.947 2.9-5.5 1.933-1.547 4.283-2.32 7.05-2.32v0h3.4v-0.85c0-1.633-0.333-2.75-1-3.35-0.667-0.6-1.917-0.9-3.75-0.9v0c-0.767 0-1.673 0.157-2.72 0.47-1.053 0.32-2.23 0.813-3.53 1.48v0l-1.45-3.95c1.433-1 3.177-1.9 5.23-2.7 2.047-0.8 3.737-1.2 5.07-1.2v0c5.233 0 7.85 2.533 7.85 7.6v0 9.8c0 1.867 0.583 3.95 1.75 6.25v0l-5.3 2.25c-0.833-1.6-1.45-3.033-1.85-4.3v0c-1.833 2.767-4.15 4.15-6.95 4.15zM478.7-5.1v0c1.333 0 2.85-0.683 4.55-2.05v0-3.35c-1.767-0.4-3.2-0.6-4.3-0.6v0c-2.1 0-3.15 0.933-3.15 2.8v0c0 0.967 0.267 1.74 0.8 2.32 0.533 0.587 1.233 0.88 2.1 0.88zM494.1-24.2h2.9v-5.45l6.75-1.3-0.65 6.75h6.05l-0.55 4.1h-5.7l-0.25 10.45c0 1.567 0.15 2.607 0.45 3.12 0.3 0.52 0.85 0.78 1.65 0.78 0.8 0 1.867-0.183 3.2-0.55v0l0.3 3.55c-2.2 1.833-4.133 2.75-5.8 2.75-1.667 0-3.033-0.61-4.1-1.83-1.067-1.213-1.6-2.803-1.6-4.77v0l0.3-5.6-0.05-7.9h-3.45zM521.8-5.1v0c0.967 0 1.983-0.25 3.05-0.75 1.067-0.5 1.9-1 2.5-1.5v0l0.9-0.75 2.3 2.8c-0.333 0.567-0.85 1.217-1.55 1.95-0.7 0.733-1.407 1.357-2.12 1.87-0.72 0.52-1.67 0.987-2.85 1.4-1.187 0.42-2.413 0.63-3.68 0.63v0c-2.7 0-4.9-1.027-6.6-3.08-1.7-2.047-2.55-4.687-2.55-7.92v0c0-4.067 1.183-7.633 3.55-10.7 2.367-3.067 5.133-4.6 8.3-4.6v0c2.433 0 4.327 0.683 5.68 2.05 1.347 1.367 2.02 3.283 2.02 5.75v0c0 1.467-0.25 3.133-0.75 5v0l-1 1.05-12.5 1.15c0.567 3.767 2.333 5.65 5.3 5.65zM521.8-20.6v0c-1.467 0-2.7 0.593-3.7 1.78-1 1.18-1.583 2.687-1.75 4.52v0l8.5-1.05c0.1-0.767 0.15-1.4 0.15-1.9v0c0-2.233-1.067-3.35-3.2-3.35zM563.35-14.4l1.75 8.15h0.65l1.6-6.85 2.6-12.35 6.1 0.75-3.65 12.4-3.05 11.7-8.2 0.75-2.75-12.15-0.25-0.8-3.35 12.2-7.95 0.75-2.9-12.15-3.45-12.15 6.55-1.25 2.05 11 1.8 8.15h0.65l4.3-14.25-1.05-3.65 6.45-1.25zM579.35-24.2l6.7-1.25-0.6 12.45 0.55 11.75-6.7 1.25 0.6-12.15zM579-32.77c0-1.12 0.433-2.12 1.3-3 0.867-0.887 1.867-1.33 3-1.33 1.133 0 2 0.307 2.6 0.92 0.6 0.62 0.9 1.547 0.9 2.78 0 1.233-0.423 2.29-1.27 3.17-0.853 0.887-1.837 1.33-2.95 1.33-1.12 0-1.997-0.367-2.63-1.1-0.633-0.733-0.95-1.657-0.95-2.77zM590.6-24.2h2.9v-5.45l6.75-1.3-0.65 6.75h6.05l-0.55 4.1h-5.7l-0.25 10.45c0 1.567 0.15 2.607 0.45 3.12 0.3 0.52 0.85 0.78 1.65 0.78 0.8 0 1.867-0.183 3.2-0.55v0l0.3 3.55c-2.2 1.833-4.133 2.75-5.8 2.75-1.667 0-3.033-0.61-4.1-1.83-1.067-1.213-1.6-2.803-1.6-4.77v0l0.3-5.6-0.05-7.9h-3.45zM623.9-12.65c0-2.3-0.2-3.833-0.6-4.6-0.4-0.767-1.333-1.15-2.8-1.15-1.467 0-3.133 0.583-5 1.75v0 3.65l0.55 11.75-6.75 1.25 0.6-12.15-0.6-25.3 6.85-1.25-0.65 12.95v5.85c0.5-0.667 1.067-1.317 1.7-1.95 0.633-0.633 1.617-1.35 2.95-2.15 1.333-0.8 2.76-1.2 4.28-1.2 1.513 0 2.787 0.59 3.82 1.77 1.033 1.187 1.55 2.797 1.55 4.83v0l-0.3 5.6 0.55 12-6.75 1.25zM662.65 0h-18.3l0.6-12.15-0.6-22.35h18.75l-0.55 5.35h-11.25l-0.3 8.85h10l-0.55 5.3h-9.65l-0.05 2 0.35 7.7h12.1zM688.15-3.3l-5.55 3.8-5.95-8.85-6.15 8.85-4.95-2.75 7.85-10.15-7.45-9.2 5.55-3.8 5.45 8.45 5.9-8.55 4.85 3-7.45 9.7zM700.1-19.25c-1.467 0-2.6 0.523-3.4 1.57-0.8 1.053-1.2 2.663-1.2 4.83 0 2.167 0.41 3.907 1.23 5.22 0.813 1.32 2.003 1.98 3.57 1.98v0c0.8 0 1.583-0.25 2.35-0.75 0.767-0.5 1.35-1 1.75-1.5v0l0.55-0.8 2.5 2.6c-0.1 0.167-0.223 0.4-0.37 0.7-0.153 0.3-0.52 0.833-1.1 1.6-0.587 0.767-1.203 1.44-1.85 2.02-0.653 0.587-1.497 1.12-2.53 1.6-1.033 0.487-2.117 0.73-3.25 0.73v0c-2.5 0-4.533-1.017-6.1-3.05-1.567-2.033-2.35-4.683-2.35-7.95v0c0-4.067 1.183-7.633 3.55-10.7 2.367-3.067 5.133-4.6 8.3-4.6v0c0.967 0 1.933 0.14 2.9 0.42 0.967 0.287 1.95 0.73 2.95 1.33v0l-3.5 6.15c-1.2-0.933-2.533-1.4-4-1.4zM719.75-5.1v0c0.967 0 1.983-0.25 3.05-0.75 1.067-0.5 1.9-1 2.5-1.5v0l0.9-0.75 2.3 2.8c-0.333 0.567-0.85 1.217-1.55 1.95-0.7 0.733-1.407 1.357-2.12 1.87-0.72 0.52-1.67 0.987-2.85 1.4-1.187 0.42-2.413 0.63-3.68 0.63v0c-2.7 0-4.9-1.027-6.6-3.08-1.7-2.047-2.55-4.687-2.55-7.92v0c0-4.067 1.183-7.633 3.55-10.7 2.367-3.067 5.133-4.6 8.3-4.6v0c2.433 0 4.327 0.683 5.68 2.05 1.347 1.367 2.02 3.283 2.02 5.75v0c0 1.467-0.25 3.133-0.75 5v0l-1 1.05-12.5 1.15c0.567 3.767 2.333 5.65 5.3 5.65zM719.75-20.6v0c-1.467 0-2.7 0.593-3.7 1.78-1 1.18-1.583 2.687-1.75 4.52v0l8.5-1.05c0.1-0.767 0.15-1.4 0.15-1.9v0c0-2.233-1.067-3.35-3.2-3.35zM733.05-37.45l6.85-1.25-0.65 25.7 0.55 11.75-6.75 1.25 0.6-12.15zM745.7-37.45l6.85-1.25-0.65 25.7 0.55 11.75-6.75 1.25 0.6-12.15zM767.35-5.1v0c0.967 0 1.983-0.25 3.05-0.75 1.067-0.5 1.9-1 2.5-1.5v0l0.9-0.75 2.3 2.8c-0.333 0.567-0.85 1.217-1.55 1.95-0.7 0.733-1.407 1.357-2.12 1.87-0.72 0.52-1.67 0.987-2.85 1.4-1.187 0.42-2.413 0.63-3.68 0.63v0c-2.7 0-4.9-1.027-6.6-3.08-1.7-2.047-2.55-4.687-2.55-7.92v0c0-4.067 1.183-7.633 3.55-10.7 2.367-3.067 5.133-4.6 8.3-4.6v0c2.433 0 4.327 0.683 5.68 2.05 1.347 1.367 2.02 3.283 2.02 5.75v0c0 1.467-0.25 3.133-0.75 5v0l-1 1.05-12.5 1.15c0.567 3.767 2.333 5.65 5.3 5.65zM767.35-20.6v0c-1.467 0-2.7 0.593-3.7 1.78-1 1.18-1.583 2.687-1.75 4.52v0l8.5-1.05c0.1-0.767 0.15-1.4 0.15-1.9v0c0-2.233-1.067-3.35-3.2-3.35zM795.15-12.65c0-2.3-0.2-3.833-0.6-4.6-0.4-0.767-1.333-1.15-2.8-1.15-1.467 0-3.133 0.583-5 1.75v0 3.65l0.55 11.75-6.7 1.25 0.6-12.15c-0.133-4.467-0.5-8.467-1.1-12v0l6.05-1.3c0.233 1.933 0.4 3.817 0.5 5.65v0c0.5-0.667 1.067-1.327 1.7-1.98 0.633-0.647 1.633-1.38 3-2.2 1.367-0.813 2.807-1.22 4.32-1.22 1.52 0 2.797 0.59 3.83 1.77 1.033 1.187 1.55 2.797 1.55 4.83v0l-0.3 5.6 0.55 12-6.75 1.25zM815.4-19.25c-1.467 0-2.6 0.523-3.4 1.57-0.8 1.053-1.2 2.663-1.2 4.83 0 2.167 0.407 3.907 1.22 5.22 0.82 1.32 2.013 1.98 3.58 1.98v0c0.8 0 1.583-0.25 2.35-0.75 0.767-0.5 1.35-1 1.75-1.5v0l0.55-0.8 2.5 2.6c-0.1 0.167-0.223 0.4-0.37 0.7-0.153 0.3-0.523 0.833-1.11 1.6-0.58 0.767-1.197 1.44-1.85 2.02-0.647 0.587-1.487 1.12-2.52 1.6-1.033 0.487-2.117 0.73-3.25 0.73v0c-2.5 0-4.533-1.017-6.1-3.05-1.567-2.033-2.35-4.683-2.35-7.95v0c0-4.067 1.183-7.633 3.55-10.7 2.367-3.067 5.133-4.6 8.3-4.6v0c0.967 0 1.933 0.14 2.9 0.42 0.967 0.287 1.95 0.73 2.95 1.33v0l-3.5 6.15c-1.2-0.933-2.533-1.4-4-1.4zM835.05-5.1v0c0.967 0 1.983-0.25 3.05-0.75 1.067-0.5 1.9-1 2.5-1.5v0l0.9-0.75 2.3 2.8c-0.333 0.567-0.85 1.217-1.55 1.95-0.7 0.733-1.407 1.357-2.12 1.87-0.72 0.52-1.673 0.987-2.86 1.4-1.18 0.42-2.403 0.63-3.67 0.63v0c-2.7 0-4.9-1.027-6.6-3.08-1.7-2.047-2.55-4.687-2.55-7.92v0c0-4.067 1.183-7.633 3.55-10.7 2.367-3.067 5.133-4.6 8.3-4.6v0c2.433 0 4.327 0.683 5.68 2.05 1.347 1.367 2.02 3.283 2.02 5.75v0c0 1.467-0.25 3.133-0.75 5v0l-1 1.05-12.5 1.15c0.567 3.767 2.333 5.65 5.3 5.65zM835.05-20.6v0c-1.467 0-2.7 0.593-3.7 1.78-1 1.18-1.583 2.687-1.75 4.52v0l8.5-1.05c0.1-0.767 0.15-1.4 0.15-1.9v0c0-2.233-1.067-3.35-3.2-3.35z" fill="#ffffff" fill-rule="nonzero" stroke="none" stroke-width="1" stroke-linecap="butt" stroke-linejoin="miter" stroke-miterlimit="10" stroke-dasharray="" stroke-dashoffset="0" font-family="none" font-weight="none" font-size="none" text-anchor="none" style="mix-blend-mode: normal" data-fill-palette-color="secondary" id="text-1"></path></g></g><g transform="matrix(1,0,0,1,29.33176499999999,35.71085153002993)"><svg viewBox="0 0 316.416 38.59326693994013" height="38.59326693994013" width="316.416"><g><svg viewBox="0 0 356.7913066586309 43.51784403989236" height="38.59326693994013" width="316.416"><g><rect width="3.270403404943785" height="43.51784403989236" x="28.543637795719068" y="0" fill="#ffffff" opacity="1" stroke-width="0" stroke="transparent" fill-opacity="1" class="rect-yte-0" data-fill-palette-color="primary" rx="1%" id="yte-0" data-palette-color="#55a6f6"></rect></g><g transform="matrix(1,0,0,1,40.375306658630876,3.626487003324364)"><svg viewBox="0 0 316.416 36.26487003324363" height="36.26487003324363" width="316.416"><g id="textblocktransform"><svg viewBox="0 0 316.416 36.26487003324363" height="36.26487003324363" width="316.416" id="textblock"><g><svg viewBox="0 0 316.416 36.26487003324363" height="36.26487003324363" width="316.416"><g transform="matrix(1,0,0,1,0,0)"><svg width="316.416" viewBox="4.5 -35.6 315.83 36.2" height="36.26487003324363" data-palette-color="#55a6f6"><path d="M9.25 0L4.5 0 4.5-35 9.25-35 9.25 0ZM22.75 0L18.25 0 18.25-35 24.55-35 40-5.9 40-35 44.5-35 44.5 0 38.3 0 22.75-28.9 22.75 0ZM62.2 0.6L62.2 0.6Q58.55 0.6 55.55-0.38 52.55-1.35 50.5-2.95L50.5-2.95 52.9-6.95Q54.7-5.45 56.95-4.5 59.2-3.55 62.2-3.55L62.2-3.55Q65.8-3.55 67.9-5.05 70-6.55 70-9.1L70-9.1Q70-10.55 69.4-11.68 68.8-12.8 67.07-13.88 65.34-14.95 62-16.2L62-16.2Q58.4-17.6 56.25-19.03 54.1-20.45 53.17-22.28 52.25-24.1 52.25-26.6L52.25-26.6Q52.25-29.1 53.62-31.13 55-33.15 57.67-34.38 60.35-35.6 64.15-35.6L64.15-35.6Q67.25-35.6 69.72-34.98 72.2-34.35 74.55-33.2L74.55-33.2 72.8-29.15Q71.09-30.15 68.82-30.83 66.55-31.5 64.05-31.5L64.05-31.5Q60.75-31.5 58.85-30.2 56.95-28.9 56.95-26.85L56.95-26.85Q56.95-25.55 57.5-24.55 58.05-23.55 59.67-22.6 61.3-21.65 64.55-20.45L64.55-20.45Q68.45-19 70.72-17.4 73-15.8 73.95-13.93 74.9-12.05 74.9-9.65L74.9-9.65Q74.9-6.4 73.27-4.1 71.65-1.8 68.77-0.6 65.9 0.6 62.2 0.6ZM93.39 0L88.64 0 88.64-30.8 77.89-30.8 77.89-35 104.14-35 104.14-30.8 93.39-30.8 93.39 0ZM113.89 0L109.14 0 109.14-35 113.89-35 113.89 0ZM127.39 0L122.89 0 122.89-35 129.54-35 139.24-12.85 148.79-35 155.59-35 155.59 0 150.84 0 150.84-28.95 141.49-7.9 136.79-7.9 127.39-28.95 127.39 0ZM192.99-1.25L188.64 0.5 184.74-9.5 168.54-9.5 164.64 0.4 160.59-1.25 174.29-35 179.49-35 192.99-1.25ZM176.64-30.3L170.04-13.5 183.19-13.5 176.64-30.3ZM202.48 0L197.98 0 197.98-35 204.28-35 219.73-5.9 219.73-35 224.23-35 224.23 0 218.03 0 202.48-28.9 202.48 0ZM261.63-1.25L257.28 0.5 253.38-9.5 237.18-9.5 233.28 0.4 229.23-1.25 242.93-35 248.13-35 261.63-1.25ZM245.28-30.3L238.68-13.5 251.83-13.5 245.28-30.3ZM277.58 0.6L277.58 0.6Q273.53 0.6 270.38-1.5 267.23-3.6 265.43-7.48 263.63-11.35 263.63-16.6L263.63-16.6Q263.63-22.2 265.53-26.48 267.43-30.75 271-33.18 274.58-35.6 279.63-35.6L279.63-35.6Q282.88-35.6 285.43-34.8 287.98-34 290.23-32.75L290.23-32.75 288.48-28.8Q286.38-29.95 284.2-30.7 282.03-31.45 279.38-31.45L279.38-31.45Q276.23-31.45 273.78-29.78 271.33-28.1 269.9-24.85 268.48-21.6 268.48-16.9L268.48-16.9Q268.48-12.7 269.78-9.73 271.08-6.75 273.38-5.15 275.68-3.55 278.68-3.55L278.68-3.55Q281.48-3.55 283.65-4.73 285.83-5.9 287.08-7.15L287.08-7.15 287.08-14.8 279.83-14.8 279.83-18.55 291.58-18.55 291.58 0 287.38 0 287.38-3.5Q285.63-1.95 283.13-0.68 280.63 0.6 277.58 0.6ZM320.33 0L299.33 0 299.33-35 320.33-35 320.33-30.9 304.08-30.9 304.08-20.25 318.08-20.25 318.08-16.25 304.08-16.25 304.08-4.1 320.33-4.1 320.33 0Z" opacity="1" transform="matrix(1,0,0,1,0,0)" fill="#ffffff" class="wordmark-text-0" data-fill-palette-color="primary" id="text-0"></path></svg></g></svg></g></svg></g></svg></g><g transform="matrix(1,0,0,1,0,5.721145896444515)"><svg viewBox="0 0 19.982372337751045 32.07555224700333" height="32.07555224700333" width="19.982372337751045"><g><svg xmlns="http://www.w3.org/2000/svg" xmlns:xlink="http://www.w3.org/1999/xlink" version="1.1" x="0" y="0" viewBox="29.861 8.786059695537867 44.36598393032388 71.21594030446212" enable-background="new 0 0 100 100" xml:space="preserve" height="32.07555224700333" width="19.982372337751045" class="icon-icon-0" data-fill-palette-color="accent" id="icon-0"><g fill="#55a6f6" data-fill-palette-color="accent"><path d="M54.13 47.688C57.802 51.065 58.058 52.643 58.07 52.95V53.007C57.991 53.413 57.682 53.833 57.227 54.23 56.702 54.691 55.977 55.13 55.139 55.505 53.604 56.198 51.696 56.675 50.002 56.675 48.272 56.675 46.33 56.183 44.779 55.472 43.945 55.087 43.226 54.644 42.718 54.181 42.294 53.794 42.007 53.398 41.928 53.009 41.928 53.007 41.928 52.968 41.937 52.894 41.972 52.482 42.378 50.898 45.869 47.689 36.734 50.019 29.861 59.927 29.861 71.793 29.861 76.332 32.867 80.002 36.574 80.002H63.424C67.131 80.002 70.137 76.332 70.137 71.793 70.138 59.928 63.271 50.02 54.13 47.688" fill="#ffffff" data-fill-palette-color="accent"></path><path d="M73.758 20.826L55.828 8.96A1.04 1.04 0 0 0 55.035 8.809L35.176 13.002C34.776 13.086 34.461 13.398 34.371 13.8L34.252 14.337C34.158 14.76 34.334 15.197 34.697 15.437L43.011 20.94 42.691 22.386C39.572 24.653 37.534 28.32 37.534 32.469 37.534 32.469 37.528 43.379 35.821 44.934H64.179C62.511 43.414 62.466 32.967 62.466 32.491V32.47C62.466 30.951 62.181 29.503 61.684 28.157 61.859 27.928 61.978 27.683 62.036 27.425L62.45 25.549 67.814 24.416C68.481 25.359 68.917 26.504 69.026 27.963A1.69 1.69 0 0 0 68.104 29.463C68.104 30.014 68.371 30.497 68.778 30.807 68.317 33.159 67.702 37.48 68.928 39.396 69.289 39.959 69.801 40.32 70.407 40.435A0.76 0.76 0 0 0 70.691 38.945C70.558 38.92 70.383 38.855 70.206 38.578 69.773 37.902 69.672 36.568 69.752 35.062 70.126 36.23 70.701 37.281 71.588 37.865A0.76 0.76 0 0 0 72.422 36.597C71.23 35.812 70.727 33.12 70.619 30.937 71.139 30.648 71.494 30.1 71.494 29.463 71.494 28.796 71.105 28.225 70.545 27.949 70.445 26.394 70.041 25.129 69.417 24.078L73.278 23.262C73.679 23.178 73.994 22.866 74.083 22.465L74.202 21.928A1.05 1.05 0 0 0 73.758 20.826M53.203 16.721C53.22 16.584 53.359 16.472 53.618 16.417 54.134 16.309 54.931 16.471 55.398 16.779 55.631 16.933 55.738 17.095 55.72 17.233L55.644 17.609C55.626 17.746 55.488 17.857 55.23 17.912 54.712 18.021 53.917 17.859 53.45 17.551 53.217 17.396 53.11 17.234 53.127 17.097z" fill="#ffffff" data-fill-palette-color="accent"></path></g></svg></g></svg></g></svg></g></svg></g></svg></g><defs></defs></svg><rect width="375.07953" height="110.01496999999999" fill="none" stroke="none" visibility="hidden"></rect></g></svg></g></svg>