<svg xmlns="http://www.w3.org/2000/svg" version="1.1" xmlns:xlink="http://www.w3.org/1999/xlink" xmlns:svgjs="http://svgjs.dev/svgjs" width="1500" height="204" viewBox="0 0 1500 204"><g transform="matrix(1,0,0,1,-0.9090909090909918,0.6131670746675724)"><svg viewBox="0 0 396 54" data-background-color="#ffffff" preserveAspectRatio="xMidYMid meet" height="204" width="1500" xmlns="http://www.w3.org/2000/svg" xmlns:xlink="http://www.w3.org/1999/xlink"><g id="tight-bounds" transform="matrix(1,0,0,1,0.2400000000000091,0.0692927721803187)"><svg viewBox="0 0 395.52 53.86141445563938" height="53.86141445563938" width="395.52"><g><svg viewBox="0 0 460.0392388732698 62.647562982428376" height="53.86141445563938" width="395.52"><g><rect width="4.088004256179731" height="54.397305049865444" x="49.72965279463004" y="4.125128966281466" fill="#55a6f6" opacity="1" stroke-width="0" stroke="transparent" fill-opacity="1" class="rect-yte-0" data-fill-palette-color="primary" rx="1%" id="yte-0" data-palette-color="#55a6f6"></rect></g><g transform="matrix(1,0,0,1,64.5192388732698,8.658237720436919)"><svg viewBox="0 0 395.52 45.33108754155454" height="45.33108754155454" width="395.52"><g id="textblocktransform"><svg viewBox="0 0 395.52 45.33108754155454" height="45.33108754155454" width="395.52" id="textblock"><g><svg viewBox="0 0 395.52 45.33108754155454" height="45.33108754155454" width="395.52"><g transform="matrix(1,0,0,1,0,0)"><svg width="395.52" viewBox="4.5 -35.6 315.83 36.2" height="45.33108754155454" data-palette-color="#55a6f6"><path d="M9.25 0L4.5 0 4.5-35 9.25-35 9.25 0ZM22.75 0L18.25 0 18.25-35 24.55-35 40-5.9 40-35 44.5-35 44.5 0 38.3 0 22.75-28.9 22.75 0ZM62.2 0.6L62.2 0.6Q58.55 0.6 55.55-0.38 52.55-1.35 50.5-2.95L50.5-2.95 52.9-6.95Q54.7-5.45 56.95-4.5 59.2-3.55 62.2-3.55L62.2-3.55Q65.8-3.55 67.9-5.05 70-6.55 70-9.1L70-9.1Q70-10.55 69.4-11.68 68.8-12.8 67.07-13.88 65.34-14.95 62-16.2L62-16.2Q58.4-17.6 56.25-19.03 54.1-20.45 53.17-22.28 52.25-24.1 52.25-26.6L52.25-26.6Q52.25-29.1 53.62-31.13 55-33.15 57.67-34.38 60.35-35.6 64.15-35.6L64.15-35.6Q67.25-35.6 69.72-34.98 72.2-34.35 74.55-33.2L74.55-33.2 72.8-29.15Q71.09-30.15 68.82-30.83 66.55-31.5 64.05-31.5L64.05-31.5Q60.75-31.5 58.85-30.2 56.95-28.9 56.95-26.85L56.95-26.85Q56.95-25.55 57.5-24.55 58.05-23.55 59.67-22.6 61.3-21.65 64.55-20.45L64.55-20.45Q68.45-19 70.72-17.4 73-15.8 73.95-13.93 74.9-12.05 74.9-9.65L74.9-9.65Q74.9-6.4 73.27-4.1 71.65-1.8 68.77-0.6 65.9 0.6 62.2 0.6ZM93.39 0L88.64 0 88.64-30.8 77.89-30.8 77.89-35 104.14-35 104.14-30.8 93.39-30.8 93.39 0ZM113.89 0L109.14 0 109.14-35 113.89-35 113.89 0ZM127.39 0L122.89 0 122.89-35 129.54-35 139.24-12.85 148.79-35 155.59-35 155.59 0 150.84 0 150.84-28.95 141.49-7.9 136.79-7.9 127.39-28.95 127.39 0ZM192.99-1.25L188.64 0.5 184.74-9.5 168.54-9.5 164.64 0.4 160.59-1.25 174.29-35 179.49-35 192.99-1.25ZM176.64-30.3L170.04-13.5 183.19-13.5 176.64-30.3ZM202.48 0L197.98 0 197.98-35 204.28-35 219.73-5.9 219.73-35 224.23-35 224.23 0 218.03 0 202.48-28.9 202.48 0ZM261.63-1.25L257.28 0.5 253.38-9.5 237.18-9.5 233.28 0.4 229.23-1.25 242.93-35 248.13-35 261.63-1.25ZM245.28-30.3L238.68-13.5 251.83-13.5 245.28-30.3ZM277.58 0.6L277.58 0.6Q273.53 0.6 270.38-1.5 267.23-3.6 265.43-7.48 263.63-11.35 263.63-16.6L263.63-16.6Q263.63-22.2 265.53-26.48 267.43-30.75 271-33.18 274.58-35.6 279.63-35.6L279.63-35.6Q282.88-35.6 285.43-34.8 287.98-34 290.23-32.75L290.23-32.75 288.48-28.8Q286.38-29.95 284.2-30.7 282.03-31.45 279.38-31.45L279.38-31.45Q276.23-31.45 273.78-29.78 271.33-28.1 269.9-24.85 268.48-21.6 268.48-16.9L268.48-16.9Q268.48-12.7 269.78-9.73 271.08-6.75 273.38-5.15 275.68-3.55 278.68-3.55L278.68-3.55Q281.48-3.55 283.65-4.73 285.83-5.9 287.08-7.15L287.08-7.15 287.08-14.8 279.83-14.8 279.83-18.55 291.58-18.55 291.58 0 287.38 0 287.38-3.5Q285.63-1.95 283.13-0.68 280.63 0.6 277.58 0.6ZM320.33 0L299.33 0 299.33-35 320.33-35 320.33-30.9 304.08-30.9 304.08-20.25 318.08-20.25 318.08-16.25 304.08-16.25 304.08-4.1 320.33-4.1 320.33 0Z" opacity="1" transform="matrix(1,0,0,1,0,0)" fill="#55a6f6" class="wordmark-text-0" data-fill-palette-color="primary" id="text-0"></path></svg></g></svg></g></svg></g></svg></g><g><svg viewBox="0 0 39.02807097217001 62.647562982428376" height="62.647562982428376" width="39.02807097217001"><g><svg xmlns="http://www.w3.org/2000/svg" xmlns:xlink="http://www.w3.org/1999/xlink" version="1.1" x="0" y="0" viewBox="29.861 8.786059695537867 44.36598393032388 71.21594030446212" enable-background="new 0 0 100 100" xml:space="preserve" height="62.647562982428376" width="39.02807097217001" class="icon-icon-0" data-fill-palette-color="accent" id="icon-0"><g fill="#55a6f6" data-fill-palette-color="accent"><path d="M54.13 47.688C57.802 51.065 58.058 52.643 58.07 52.95V53.007C57.991 53.413 57.682 53.833 57.227 54.23 56.702 54.691 55.977 55.13 55.139 55.505 53.604 56.198 51.696 56.675 50.002 56.675 48.272 56.675 46.33 56.183 44.779 55.472 43.945 55.087 43.226 54.644 42.718 54.181 42.294 53.794 42.007 53.398 41.928 53.009 41.928 53.007 41.928 52.968 41.937 52.894 41.972 52.482 42.378 50.898 45.869 47.689 36.734 50.019 29.861 59.927 29.861 71.793 29.861 76.332 32.867 80.002 36.574 80.002H63.424C67.131 80.002 70.137 76.332 70.137 71.793 70.138 59.928 63.271 50.02 54.13 47.688" fill="#55a6f6" data-fill-palette-color="accent"></path><path d="M73.758 20.826L55.828 8.96A1.04 1.04 0 0 0 55.035 8.809L35.176 13.002C34.776 13.086 34.461 13.398 34.371 13.8L34.252 14.337C34.158 14.76 34.334 15.197 34.697 15.437L43.011 20.94 42.691 22.386C39.572 24.653 37.534 28.32 37.534 32.469 37.534 32.469 37.528 43.379 35.821 44.934H64.179C62.511 43.414 62.466 32.967 62.466 32.491V32.47C62.466 30.951 62.181 29.503 61.684 28.157 61.859 27.928 61.978 27.683 62.036 27.425L62.45 25.549 67.814 24.416C68.481 25.359 68.917 26.504 69.026 27.963A1.69 1.69 0 0 0 68.104 29.463C68.104 30.014 68.371 30.497 68.778 30.807 68.317 33.159 67.702 37.48 68.928 39.396 69.289 39.959 69.801 40.32 70.407 40.435A0.76 0.76 0 0 0 70.691 38.945C70.558 38.92 70.383 38.855 70.206 38.578 69.773 37.902 69.672 36.568 69.752 35.062 70.126 36.23 70.701 37.281 71.588 37.865A0.76 0.76 0 0 0 72.422 36.597C71.23 35.812 70.727 33.12 70.619 30.937 71.139 30.648 71.494 30.1 71.494 29.463 71.494 28.796 71.105 28.225 70.545 27.949 70.445 26.394 70.041 25.129 69.417 24.078L73.278 23.262C73.679 23.178 73.994 22.866 74.083 22.465L74.202 21.928A1.05 1.05 0 0 0 73.758 20.826M53.203 16.721C53.22 16.584 53.359 16.472 53.618 16.417 54.134 16.309 54.931 16.471 55.398 16.779 55.631 16.933 55.738 17.095 55.72 17.233L55.644 17.609C55.626 17.746 55.488 17.857 55.23 17.912 54.712 18.021 53.917 17.859 53.45 17.551 53.217 17.396 53.11 17.234 53.127 17.097z" fill="#55a6f6" data-fill-palette-color="accent"></path></g></svg></g></svg></g></svg></g><defs></defs></svg><rect width="395.52" height="53.86141445563938" fill="none" stroke="none" visibility="hidden"></rect></g></svg></g></svg>